<mxfile host="65bd71144e">
    <diagram id="DWDvGTDqUMvaEMkSsFly" name="Page-1">
        <mxGraphModel dx="1269" dy="638" grid="1" gridSize="10" guides="1" tooltips="1" connect="1" arrows="1" fold="1" page="1" pageScale="1" pageWidth="850" pageHeight="1100" background="#ffffff" math="0" shadow="0">
            <root>
                <mxCell id="0"/>
                <mxCell id="1" parent="0"/>
                <mxCell id="4" value="Navigation_Node" style="ellipse;whiteSpace=wrap;html=1;" parent="1" vertex="1">
                    <mxGeometry x="90" y="170" width="120" height="80" as="geometry"/>
                </mxCell>
                <mxCell id="5" value="Camera_Node" style="ellipse;whiteSpace=wrap;html=1;" parent="1" vertex="1">
                    <mxGeometry x="370" y="170" width="120" height="80" as="geometry"/>
                </mxCell>
                <mxCell id="7" value="RobotStatus (Param)" style="rounded=1;whiteSpace=wrap;html=1;" parent="1" vertex="1">
                    <mxGeometry x="230" y="70" width="120" height="60" as="geometry"/>
                </mxCell>
                <mxCell id="11" value="" style="endArrow=classic;startArrow=classic;html=1;entryX=0;entryY=0.5;entryDx=0;entryDy=0;exitX=0.5;exitY=0;exitDx=0;exitDy=0;" parent="1" source="4" target="7" edge="1">
                    <mxGeometry width="50" height="50" relative="1" as="geometry">
                        <mxPoint x="230" y="230" as="sourcePoint"/>
                        <mxPoint x="280" y="180" as="targetPoint"/>
                        <Array as="points">
                            <mxPoint x="150" y="100"/>
                        </Array>
                    </mxGeometry>
                </mxCell>
                <mxCell id="12" value="" style="endArrow=classic;startArrow=classic;html=1;entryX=1;entryY=0.5;entryDx=0;entryDy=0;exitX=0.5;exitY=0;exitDx=0;exitDy=0;" parent="1" source="5" target="7" edge="1">
                    <mxGeometry width="50" height="50" relative="1" as="geometry">
                        <mxPoint x="230" y="230" as="sourcePoint"/>
                        <mxPoint x="280" y="180" as="targetPoint"/>
                        <Array as="points">
                            <mxPoint x="430" y="100"/>
                        </Array>
                    </mxGeometry>
                </mxCell>
                <mxCell id="14" value="SeatLocation (Topic)" style="rounded=0;whiteSpace=wrap;html=1;" parent="1" vertex="1">
                    <mxGeometry x="215" y="260" width="155" height="70" as="geometry"/>
                </mxCell>
                <mxCell id="16" value="" style="endArrow=classic;html=1;exitX=0.5;exitY=1;exitDx=0;exitDy=0;entryX=1;entryY=0.5;entryDx=0;entryDy=0;" parent="1" source="5" target="14" edge="1">
                    <mxGeometry width="50" height="50" relative="1" as="geometry">
                        <mxPoint x="360" y="260" as="sourcePoint"/>
                        <mxPoint x="410" y="330" as="targetPoint"/>
                        <Array as="points">
                            <mxPoint x="430" y="295"/>
                        </Array>
                    </mxGeometry>
                </mxCell>
                <mxCell id="18" value="GuestAPI (Service)" style="ellipse;whiteSpace=wrap;html=1;aspect=fixed;" parent="1" vertex="1">
                    <mxGeometry x="570" y="150" width="120" height="120" as="geometry"/>
                </mxCell>
                <mxCell id="22" value="" style="endArrow=classic;html=1;exitX=1;exitY=0;exitDx=0;exitDy=0;" parent="1" source="5" edge="1">
                    <mxGeometry width="50" height="50" relative="1" as="geometry">
                        <mxPoint x="430" y="260" as="sourcePoint"/>
                        <mxPoint x="580" y="182" as="targetPoint"/>
                    </mxGeometry>
                </mxCell>
                <mxCell id="23" value="" style="endArrow=classic;html=1;entryX=1;entryY=1;entryDx=0;entryDy=0;exitX=0.067;exitY=0.729;exitDx=0;exitDy=0;exitPerimeter=0;" parent="1" source="18" target="5" edge="1">
                    <mxGeometry width="50" height="50" relative="1" as="geometry">
                        <mxPoint x="590" y="290" as="sourcePoint"/>
                        <mxPoint x="520" y="300" as="targetPoint"/>
                    </mxGeometry>
                </mxCell>
                <mxCell id="24" value="Sends ArUco ID" style="text;html=1;strokeColor=none;fillColor=none;align=center;verticalAlign=middle;whiteSpace=wrap;rounded=0;" parent="1" vertex="1">
                    <mxGeometry x="480" y="150" width="100" height="30" as="geometry"/>
                </mxCell>
                <mxCell id="25" value="Send Guest Name&lt;br&gt;and Location" style="text;html=1;strokeColor=none;fillColor=none;align=center;verticalAlign=middle;whiteSpace=wrap;rounded=0;" parent="1" vertex="1">
                    <mxGeometry x="470" y="250" width="110" height="30" as="geometry"/>
                </mxCell>
                <mxCell id="27" value="" style="endArrow=classic;html=1;exitX=1;exitY=0.5;exitDx=0;exitDy=0;" parent="1" source="18" edge="1">
                    <mxGeometry width="50" height="50" relative="1" as="geometry">
                        <mxPoint x="540" y="310" as="sourcePoint"/>
                        <mxPoint x="740" y="210" as="targetPoint"/>
                    </mxGeometry>
                </mxCell>
                <mxCell id="28" value="In-Memory" style="shape=cylinder3;whiteSpace=wrap;html=1;boundedLbl=1;backgroundOutline=1;size=15;" parent="1" vertex="1">
                    <mxGeometry x="740" y="150" width="80" height="110" as="geometry"/>
                </mxCell>
                <mxCell id="29" value="PlaySound (Topic)" style="rounded=0;whiteSpace=wrap;html=1;" parent="1" vertex="1">
                    <mxGeometry x="215" y="340" width="155" height="70" as="geometry"/>
                </mxCell>
                <mxCell id="30" value="" style="endArrow=classic;html=1;entryX=1;entryY=0.5;entryDx=0;entryDy=0;exitX=0.5;exitY=1;exitDx=0;exitDy=0;" parent="1" source="5" target="29" edge="1">
                    <mxGeometry width="50" height="50" relative="1" as="geometry">
                        <mxPoint x="430" y="290" as="sourcePoint"/>
                        <mxPoint x="430" y="290" as="targetPoint"/>
                        <Array as="points">
                            <mxPoint x="430" y="375"/>
                        </Array>
                    </mxGeometry>
                </mxCell>
                <mxCell id="31" value="" style="endArrow=classic;html=1;entryX=0;entryY=0.5;entryDx=0;entryDy=0;exitX=0.5;exitY=1;exitDx=0;exitDy=0;" parent="1" source="4" target="14" edge="1">
                    <mxGeometry width="50" height="50" relative="1" as="geometry">
                        <mxPoint x="150" y="300" as="sourcePoint"/>
                        <mxPoint x="380" y="220" as="targetPoint"/>
                        <Array as="points">
                            <mxPoint x="150" y="295"/>
                        </Array>
                    </mxGeometry>
                </mxCell>
                <mxCell id="32" value="Voice_Node" style="ellipse;whiteSpace=wrap;html=1;" parent="1" vertex="1">
                    <mxGeometry x="232.5" y="460" width="120" height="80" as="geometry"/>
                </mxCell>
                <mxCell id="33" value="" style="endArrow=classic;html=1;exitX=0.5;exitY=1;exitDx=0;exitDy=0;entryX=0.5;entryY=0;entryDx=0;entryDy=0;" parent="1" source="29" target="32" edge="1">
                    <mxGeometry width="50" height="50" relative="1" as="geometry">
                        <mxPoint x="350" y="350" as="sourcePoint"/>
                        <mxPoint x="400" y="450" as="targetPoint"/>
                        <Array as="points"/>
                    </mxGeometry>
                </mxCell>
                <mxCell id="34" value="&lt;h1&gt;&lt;font color=&quot;#000000&quot;&gt;RobotStatus&lt;/font&gt;&lt;/h1&gt;&lt;p&gt;&lt;font color=&quot;#000000&quot;&gt;(Param) Indicates the status of the robot&lt;/font&gt;&lt;/p&gt;&lt;p&gt;&lt;/p&gt;&lt;ol&gt;&lt;li&gt;&lt;font color=&quot;#000000&quot;&gt;Free: Robot is at home position, waiting for ArUco scan&lt;/font&gt;&lt;/li&gt;&lt;li&gt;&lt;font color=&quot;#000000&quot;&gt;Serving: ArUco scanned, begin/doing navigation&lt;/font&gt;&lt;/li&gt;&lt;li&gt;&lt;font color=&quot;#000000&quot;&gt;AtDestination: Wait for another ArUco scan&lt;/font&gt;&lt;/li&gt;&lt;li&gt;&lt;font color=&quot;#000000&quot;&gt;GoHome: Going to its home position&lt;/font&gt;&lt;/li&gt;&lt;/ol&gt;&lt;p&gt;&lt;/p&gt;" style="text;html=1;strokeColor=none;fillColor=none;spacing=5;spacingTop=-20;whiteSpace=wrap;overflow=hidden;rounded=0;" parent="1" vertex="1">
                    <mxGeometry x="60" y="570" width="390" height="180" as="geometry"/>
                </mxCell>
                <mxCell id="36" value="" style="endArrow=classic;html=1;exitX=0;exitY=0.5;exitDx=0;exitDy=0;" parent="1" source="32" edge="1">
                    <mxGeometry width="50" height="50" relative="1" as="geometry">
                        <mxPoint x="400" y="300" as="sourcePoint"/>
                        <mxPoint x="230" y="85" as="targetPoint"/>
                        <Array as="points">
                            <mxPoint x="80" y="500"/>
                            <mxPoint x="80" y="85"/>
                        </Array>
                    </mxGeometry>
                </mxCell>
                <mxCell id="37" value="&lt;h1&gt;&lt;font color=&quot;#000000&quot;&gt;SeatLocation&lt;/font&gt;&lt;/h1&gt;&lt;p&gt;&lt;font color=&quot;#000000&quot;&gt;(Topic, Pose) Location of the Guest's Seat&lt;/font&gt;&lt;/p&gt;&lt;p&gt;&lt;/p&gt;" style="text;html=1;strokeColor=none;fillColor=none;spacing=5;spacingTop=-20;whiteSpace=wrap;overflow=hidden;rounded=0;" parent="1" vertex="1">
                    <mxGeometry x="410" y="570" width="390" height="180" as="geometry"/>
                </mxCell>
                <mxCell id="38" value="&lt;h1&gt;&lt;font color=&quot;#000000&quot;&gt;GuestMessage&lt;/font&gt;&lt;/h1&gt;&lt;p&gt;&lt;font color=&quot;#000000&quot;&gt;(Topic, String) Welcoming message for guests to be shown on the screen&lt;/font&gt;&lt;/p&gt;&lt;p&gt;&lt;/p&gt;" style="text;html=1;strokeColor=none;fillColor=none;spacing=5;spacingTop=-20;whiteSpace=wrap;overflow=hidden;rounded=0;" parent="1" vertex="1">
                    <mxGeometry x="410" y="650" width="390" height="180" as="geometry"/>
                </mxCell>
            </root>
        </mxGraphModel>
    </diagram>
</mxfile>